<?xml version="1.0" encoding="utf-8"?>
<!-- Generator: Adobe Illustrator 25.1.0, SVG Export Plug-In . SVG Version: 6.00 Build 0)  -->
<svg version="1.1" id="_x31_0" xmlns="http://www.w3.org/2000/svg" xmlns:xlink="http://www.w3.org/1999/xlink" x="0px" y="0px"
	 viewBox="0 0 120 120" style="enable-background:new 0 0 120 120;" xml:space="preserve">
<style type="text/css">
	.st0{fill:#FFFFFF;}
</style>
<g>
	<g id="XMLID_1_">
		<g>
			<path class="st0" d="M119,33.9v52.2c0,18.7-15.2,33.9-33.9,33.9H34.9C16.2,120,1,104.8,1,86.1V33.9C1,15.2,16.2,0,34.9,0h50.2
				C103.8,0,119,15.2,119,33.9z M107,86.1V33.9C107,21.9,97.1,12,85.1,12H34.9C22.9,12,13,21.9,13,33.9v52.2
				c0,12.1,9.8,21.9,21.9,21.9h50.2C97.1,108,107,98.2,107,86.1z"/>
			<path class="st0" d="M91.8,21.3c3.8,0,6.9,3.1,6.9,6.9c0,3.8-3.1,6.9-6.9,6.9c-3.8,0-6.9-3.1-6.9-6.9
				C84.9,24.4,88,21.3,91.8,21.3z"/>
			<path class="st0" d="M60,29.1C77,29.1,90.9,43,90.9,60S77,90.9,60,90.9S29.1,77,29.1,60S43,29.1,60,29.1z M81.3,60
				c0-11.7-9.5-21.3-21.3-21.3S38.7,48.3,38.7,60S48.3,81.3,60,81.3S81.3,71.7,81.3,60z"/>
		</g>
		<g>
		</g>
	</g>
</g>
</svg>
