<?xml version="1.0" encoding="utf-8"?>
<!-- Generator: Adobe Illustrator 25.1.0, SVG Export Plug-In . SVG Version: 6.00 Build 0)  -->
<svg version="1.1" id="_x31_0" xmlns="http://www.w3.org/2000/svg" xmlns:xlink="http://www.w3.org/1999/xlink" x="0px" y="0px"
	 viewBox="0 0 120 120" style="enable-background:new 0 0 120 120;" xml:space="preserve">
<style type="text/css">
	.st0{fill:#FFFFFF;}
</style>
<g>
	<g id="XMLID_1_">
		<g>
			<path d="M118.5,25.4C118.5,25.3,118.5,25.3,118.5,25.4C118.6,25.3,118.5,25.4,118.5,25.4z"/>
			<path class="st0" d="M37.6,109.8c-13.7,0-26.4-4-37.1-10.9c0,0,0.1,0,0.2,0c0,0-0.1,0-0.1-0.1c0.3,0.1,0.6,0.1,0.9,0.1
				c1.6,0.2,3.2,0.3,4.8,0.3c11.3,0,21.8-3.8,30-10.3c-1.3-0.1-2.5-0.2-3.8-0.4c-8.9-1.6-16-8-18.8-16.5c0.1,0,0.1,0,0.1,0
				c0,0,0,0,0,0c0.3,0.1,0.5,0.1,0.8,0.1c1.2,0.2,2.4,0.3,3.7,0.3c2.2,0,4.3-0.3,6.3-0.8c-1.8-0.4-3.5-1.1-5.2-1.8
				C11.1,66.1,5.2,57.7,5.2,47.9c0-0.1,0-0.2,0-0.3c3.2,1.8,6.9,2.9,10.9,3C14.9,49.8,13.9,49,13,48c-4.6-4.4-7.5-10.6-7.5-17.5
				c0-4.4,1.2-8.6,3.3-12.2c0,0,0,0.1,0.1,0.1v0c1.5,1.9,3.1,3.6,4.7,5.2c11.7,11.7,27.5,19.1,45.1,20c0-0.2,0-0.3-0.1-0.5
				c-0.3-1.6-0.5-3.3-0.5-5c0-13.4,10.9-24.2,24.2-24.2c7,0,13.2,2.9,17.7,7.7c5.5-1.1,10.7-3.1,15.4-5.9c0,0.1-0.1,0.1-0.1,0.1
				c0.1,0,0.1,0,0.1-0.1c-0.4,1.2-0.9,2.2-1.5,3.3c-2,4.1-5.2,7.6-9.1,10c1-0.1,1.9-0.2,2.8-0.4c3.8-0.7,7.5-1.8,11-3.4c0,0,0,0,0,0
				c0,0,0,0.1-0.1,0.1c-0.7,0.9-1.4,1.9-2.1,2.8c-2.8,3.7-6.2,6.9-9.9,9.6c0.1,1.1,0.1,2.1,0.1,3.1c0,6.2-0.9,12.5-2.7,18.8
				c0,0.1-0.1,0.3-0.1,0.4c-0.5,1.8-1.1,3.5-1.8,5.3c-0.2,0.5-0.4,1-0.6,1.4c-0.6,1.5-1.2,2.9-1.9,4.3c-0.3,0.6-0.6,1.2-0.9,1.8
				c-0.7,1.3-1.4,2.6-2.2,3.9c-0.3,0.6-0.7,1.1-1,1.6c-0.9,1.4-1.8,2.7-2.7,4c-0.3,0.3-0.5,0.7-0.8,1.1c-1.1,1.5-2.3,2.9-3.6,4.3
				c-0.1,0.1-0.2,0.2-0.3,0.3C76.4,101,59.4,109.8,37.6,109.8z"/>
		</g>
		<g>
		</g>
	</g>
</g>
</svg>
